<svg id="Layer_1" fill="#FFFFFF" data-name="Layer 1" xmlns="http://www.w3.org/2000/svg" viewBox="0 0 1366 1366"><title>Untitled-1</title><path d="M577.73,870.11c-11.89,0-20.86.81-29.64-.16-19.7-2.18-34-15.24-34.24-34.92-.79-77-.32-154.11-.32-232H831.65V706.1q0,57.48,0,115c0,36.27-12.74,49.1-49,49.55-4.16.06-8.31.35-14.82.64,0,23.71.56,47.16-.28,70.55-.33,9.12-2,19.12-6.31,27-7.38,13.52-24.1,18.83-38.14,14.68-16-4.74-26.33-17.3-26.73-34.82-.57-25.13-.14-50.28-.14-76.72H648.85c0,25,.46,50-.12,75-.68,28.83-27,46.28-51,34.18-14.77-7.42-20.16-20.34-20-36.33C577.87,920.74,577.73,896.7,577.73,870.11Z"/><path d="M741.85,457.15c9.86-17.34,18.93-33.26,28-49.19l6,3c-3.81,18.16-17.7,32.46-23.61,50.73,47.67,28.22,77.48,67.75,80,126.15h-317c-9.1-38.49,18.57-84.11,77.58-126.93-8.11-16.38-16.34-33-24.57-49.67l6.52-3.41L603,456.68C648.58,438.74,694.6,437.58,741.85,457.15Zm-123.06,63c-8.22-7.13-13.06-14.56-17.34-14.24-5.33.4-10.19,7.17-15.25,11.19,3.85,4.78,7.29,12.93,11.64,13.46C603.09,531.15,609.12,525.3,618.79,520.12Zm145.49-2.83c-8.65-5.8-14.47-12.61-18.5-11.68-5.39,1.24-9.4,8.49-14,13.15,5,4.22,9.66,11.07,15.13,11.8C751,531.11,756.2,523.82,764.28,517.29Z"/><path d="M916.22,706.28c0,23.1.2,46.2-.05,69.3-.25,23.66-14.83,39.57-35.63,39.47-20.24-.1-34.75-15.11-35-38.38q-.78-71.65,0-143.33c.25-23.32,14.72-37.78,35.5-37.59s34.83,15.09,35.12,38.07C916.47,658,916.22,682.13,916.22,706.28Z"/><path d="M499.63,705.65c0,23.1.33,46.19-.09,69.28-.45,25.3-14.86,40.79-36.42,40.1-20.65-.66-34.25-16.57-34.32-40.75q-.21-69.27,0-138.55c.09-24.2,13.81-39.62,34.92-39.89,21.37-.27,35.39,14.59,35.82,39C500,658.42,499.64,682,499.63,705.65Z"/></svg>