<svg id="Layer_1" data-name="Layer 1" xmlns="http://www.w3.org/2000/svg" viewBox="#ffffff"><title>apple</title><path d="M857.28,582c-103.62,63.32-85.23,195.6,10.33,238.43-10,32.59-25.67,62.31-46.05,89.72-6.93,9.31-13.69,18.82-21.32,27.54-35,40-63.25,47.71-112.38,28-37.8-15.18-74.21-15.37-112.12-.31-51.52,20.45-75.3,15-112-27.12-64-73.53-97.73-158.55-91.23-257.32,5.24-79.63,60.26-140.75,138.22-149.29,21.35-2.34,45.43,3,65.64,11.25,32.24,13.13,61.54,13,93.45-.41,55.3-23.19,108.64-18.36,157.75,18.09C836.87,567.45,846.33,574.11,857.28,582Z" transform="translate(-371.74 -372.81)"/><path d="M742.51,390c6.17,62.73-45.82,129.32-105.11,137.36-14.48,2-18.42-2.61-17.56-16.37C623.65,449.85,680.72,392.87,742.51,390Z" transform="translate(-371.74 -372.81)"/><path d="M2290.73,835.11c-11.89,0-20.86.81-29.64-.16-19.7-2.18-34-15.24-34.24-34.92-.79-77-.32-154.11-.32-232h318.12V671.1q0,57.48,0,115c0,36.27-12.74,49.1-49,49.55-4.16.06-8.31.35-14.82.64,0,23.71.56,47.16-.28,70.55-.33,9.12-2,19.12-6.31,27-7.38,13.52-24.1,18.83-38.14,14.68-16-4.74-26.33-17.3-26.73-34.82-.57-25.13-.14-50.28-.14-76.72h-47.32c0,25,.46,50-.12,75-.68,28.83-27,46.28-51,34.18-14.77-7.42-20.16-20.34-20-36.33C2290.87,885.74,2290.73,861.7,2290.73,835.11Z" transform="translate(-371.74 -372.81)"/><path d="M2454.85,422.15c9.86-17.34,18.93-33.26,28-49.19l6,3c-3.81,18.16-17.7,32.46-23.61,50.73,47.67,28.22,77.48,67.75,80,126.15h-317c-9.1-38.49,18.57-84.11,77.58-126.93-8.11-16.38-16.34-33-24.57-49.67l6.52-3.41L2316,421.68C2361.58,403.74,2407.6,402.58,2454.85,422.15Zm-123.06,63c-8.22-7.13-13.06-14.56-17.34-14.24-5.33.4-10.19,7.17-15.25,11.19,3.85,4.78,7.29,12.93,11.64,13.46C2316.09,496.15,2322.12,490.3,2331.79,485.12Zm145.49-2.83c-8.65-5.8-14.47-12.61-18.5-11.68-5.39,1.24-9.4,8.49-14,13.15,5,4.22,9.66,11.07,15.13,11.8C2464,496.11,2469.2,488.82,2477.28,482.29Z" transform="translate(-371.74 -372.81)"/><path d="M2629.22,671.28c0,23.1.2,46.2,0,69.3-.25,23.66-14.83,39.57-35.63,39.47-20.24-.1-34.75-15.11-35-38.38q-.78-71.65,0-143.33c.25-23.32,14.72-37.78,35.5-37.59s34.83,15.09,35.12,38.07C2629.47,623,2629.22,647.13,2629.22,671.28Z" transform="translate(-371.74 -372.81)"/><path d="M2212.63,670.65c0,23.1.33,46.19-.09,69.28-.45,25.3-14.86,40.79-36.42,40.1-20.65-.66-34.25-16.57-34.32-40.75q-.21-69.27,0-138.55c.09-24.2,13.81-39.62,34.92-39.89,21.37-.27,35.39,14.59,35.82,39C2213,623.42,2212.64,647,2212.63,670.65Z" transform="translate(#ffffff"/></svg>