<svg fill="#FFFFFF" id="Layer_1" data-name="Layer 1" xmlns="http://www.w3.org/2000/svg" viewBox="0 0 1366 1366"><title>apple</title><path d="M857.28,582c-103.62,63.32-85.23,195.6,10.33,238.43-10,32.59-25.67,62.31-46.05,89.72-6.93,9.31-13.69,18.82-21.32,27.54-35,40-63.25,47.71-112.38,28-37.8-15.18-74.21-15.37-112.12-.31-51.52,20.45-75.3,15-112-27.12-64-73.53-97.73-158.55-91.23-257.32,5.24-79.63,60.26-140.75,138.22-149.29,21.35-2.34,45.43,3,65.64,11.25,32.24,13.13,61.54,13,93.45-.41,55.3-23.19,108.64-18.36,157.75,18.09C836.87,567.45,846.33,574.11,857.28,582Z"/><path d="M742.51,390c6.17,62.73-45.82,129.32-105.11,137.36-14.48,2-18.42-2.61-17.56-16.37C623.65,449.85,680.72,392.87,742.51,390Z"/></svg>