<svg id="Layer_1" data-name="Layer 1" xmlns="http://www.w3.org/2000/svg" viewBox="0 0 2118 1125"><defs><style>.cls-1{fill:#fff;}</style></defs><title>Click Race Digital</title><path class="cls-1" d="M681,725.66a39.94,39.94,0,0,1-17.1-15.35,43.11,43.11,0,0,1-6-22.71,62.41,62.41,0,0,1,7.86-31.14A57.13,57.13,0,0,1,688,634.41q14.25-8.08,32.74-8.08a58.5,58.5,0,0,1,23.36,4.37,33.08,33.08,0,0,1,15.36,12.66l-13.68,11.5q-8.6-11.94-26.35-11.94a42.09,42.09,0,0,0-22.26,5.82,39.76,39.76,0,0,0-14.85,15.8,46.35,46.35,0,0,0-5.24,21.9q0,13,8.3,20.52t23.57,7.57q17.61,0,29-11.79l11.06,11.93A44.75,44.75,0,0,1,731,727.05a65.57,65.57,0,0,1-23.58,4.07Q692.17,731.12,681,725.66Z"/><path class="cls-1" d="M774.11,621.67H792.3l-21.54,108h-18.2Z"/><path class="cls-1" d="M802.77,652H821l-15.43,77.72H787.35Zm5.39-15.8a9.66,9.66,0,0,1-3.06-7.2,11.16,11.16,0,0,1,3.42-8.3,12.26,12.26,0,0,1,9-3.34,11,11,0,0,1,7.86,2.84,9.06,9.06,0,0,1,3.06,6.91,11.67,11.67,0,0,1-3.42,8.73,12.25,12.25,0,0,1-9,3.35A10.79,10.79,0,0,1,808.16,636.15Z"/><path class="cls-1" d="M840.83,726.39a31.44,31.44,0,0,1-13.32-12,34,34,0,0,1-4.65-17.9,45.78,45.78,0,0,1,6-23.28A42.87,42.87,0,0,1,845.34,657a48.58,48.58,0,0,1,24.09-5.9q11.79,0,20.3,4.59a31.31,31.31,0,0,1,13.18,13.61l-15.58,8Q881.95,666.5,868,666.5a25.78,25.78,0,0,0-13.76,3.71,26.17,26.17,0,0,0-9.53,10.34,31.74,31.74,0,0,0-3.49,15.06q0,9.17,5.38,14.33t15.28,5.17a26.58,26.58,0,0,0,12.08-2.69,24.66,24.66,0,0,0,9.17-8.08l13.39,9a36.36,36.36,0,0,1-14.84,12.74A46.73,46.73,0,0,1,861,730.68,44.86,44.86,0,0,1,840.83,726.39Z"/><path class="cls-1" d="M951.81,685.28l27.36,44.39h-21.1l-20.82-33.62L921,709.14l-4.07,20.53H898.69l21.54-108h18.19l-12.81,64.48L968.25,652H993Z"/><path class="cls-1" d="M1107.83,683.31q-7.86,10.13-22,14.05L1104,729.67H1084l-16.74-29.84H1041.9l-5.83,29.84H1017l20.37-101.88H1077q18.48,0,28.6,8.07t10.12,22.64Q1115.69,673.2,1107.83,683.31Zm-18.78-5.24q7.58-6.18,7.57-17.83,0-8.15-5.6-12.3t-16.09-4.14h-21.68l-8.15,40.46h22.56Q1081.47,684.26,1089.05,678.07Z"/><path class="cls-1" d="M1205.77,652l-15.42,77.72H1173l1.6-8q-10.2,9-25.33,9a36.89,36.89,0,0,1-17.39-4.07,30.18,30.18,0,0,1-12.3-11.86,35.77,35.77,0,0,1-4.51-18.27,47.54,47.54,0,0,1,5.75-23.36,41.87,41.87,0,0,1,15.72-16.23,43.46,43.46,0,0,1,22.34-5.82q18.63,0,26.49,12.37l2.18-11.49Zm-38.06,59.45a26.17,26.17,0,0,0,9.54-10.33,31.81,31.81,0,0,0,3.49-15.07q0-9.16-5.38-14.33t-15.14-5.17a25.75,25.75,0,0,0-13.75,3.71,26.2,26.2,0,0,0-9.54,10.34,31.74,31.74,0,0,0-3.49,15.06q0,9.17,5.38,14.33t15.14,5.17A25.75,25.75,0,0,0,1167.71,711.4Z"/><path class="cls-1" d="M1225.64,726.39a31.38,31.38,0,0,1-13.32-12,34,34,0,0,1-4.66-17.9,45.69,45.69,0,0,1,6-23.28A42.8,42.8,0,0,1,1230.15,657a48.53,48.53,0,0,1,24.09-5.9q11.79,0,20.3,4.59a31.23,31.23,0,0,1,13.17,13.61l-15.57,8q-5.39-10.77-19.36-10.77a25.75,25.75,0,0,0-13.75,3.71,26.1,26.1,0,0,0-9.53,10.34,31.75,31.75,0,0,0-3.5,15.06q0,9.17,5.39,14.33t15.28,5.17a26.58,26.58,0,0,0,12.08-2.69,24.73,24.73,0,0,0,9.17-8.08l13.39,9a36.33,36.33,0,0,1-14.85,12.74,46.66,46.66,0,0,1-20.66,4.58A44.86,44.86,0,0,1,1225.64,726.39Z"/><path class="cls-1" d="M1363.25,696.19h-61.71q.43,19.06,22.41,19.07a36.65,36.65,0,0,0,12.52-2.11,28.59,28.59,0,0,0,9.89-5.9l7.57,12.66A38.61,38.61,0,0,1,1339.6,728a56.79,56.79,0,0,1-17.54,2.69q-11.64,0-20.3-4.22a30.74,30.74,0,0,1-13.32-12,34.31,34.31,0,0,1-4.66-18,47.54,47.54,0,0,1,5.75-23.36,41.3,41.3,0,0,1,16-16.23,45.93,45.93,0,0,1,23.07-5.82q16.29,0,26.05,9.1t9.75,25A52.62,52.62,0,0,1,1363.25,696.19Zm-51.16-25.61a25.24,25.24,0,0,0-8.95,13.53h44.53q.15-8.73-5.31-13.61t-14.62-4.87A25,25,0,0,0,1312.09,670.58Z"/><path class="cls-1" d="M850.62,761.28h17.86a26.18,26.18,0,0,1,12.28,2.78,20.34,20.34,0,0,1,8.27,7.77,23.41,23.41,0,0,1,0,22.75,20.34,20.34,0,0,1-8.27,7.77,26.07,26.07,0,0,1-12.28,2.79H850.62Zm17.61,39.85a21.24,21.24,0,0,0,10.09-2.29,16.57,16.57,0,0,0,6.7-6.33,19.38,19.38,0,0,0,0-18.61,16.7,16.7,0,0,0-6.7-6.33,21.36,21.36,0,0,0-10.09-2.28h-13v35.84Z"/><path class="cls-1" d="M914.91,761.28h4.64v43.86h-4.64Z"/><path class="cls-1" d="M977.26,783.21h4.45v16.73a21.53,21.53,0,0,1-7.27,4.13,26.82,26.82,0,0,1-8.84,1.44,24.27,24.27,0,0,1-11.84-2.88,21.18,21.18,0,0,1-8.27-8,23.23,23.23,0,0,1,0-22.87,21.25,21.25,0,0,1,8.27-8,24.39,24.39,0,0,1,11.9-2.88,25.61,25.61,0,0,1,9.22,1.6,18.36,18.36,0,0,1,7.08,4.73l-2.89,2.94A18,18,0,0,0,965.85,765a19.69,19.69,0,0,0-9.62,2.35,17.2,17.2,0,0,0-6.73,6.51,18.84,18.84,0,0,0,0,18.58,17.63,17.63,0,0,0,6.7,6.52,20.86,20.86,0,0,0,21.06-1Z"/><path class="cls-1" d="M1007.33,761.28H1012v43.86h-4.64Z"/><path class="cls-1" d="M1047.31,765.29H1031.9v-4h35.46v4H1052v39.85h-4.64Z"/><path class="cls-1" d="M1112.6,793.42h-24.43l-5.27,11.72h-4.82l20.05-43.86h4.57l20,43.86h-4.88Zm-1.69-3.76-10.53-23.56-10.52,23.56Z"/><path class="cls-1" d="M1142.56,761.28h4.63v39.85h24.57v4h-29.2Z"/><path class="cls-1" d="M929.58,486.8c4.63,4.27,9,8.81,13.41,13.31,2.12,2.17,3.53,2,5.73-.28,8.54-8.87,17.44-17.39,26-26.2,8.94-9.15,17.69-18.47,27.09-28.31l55.85,56.41,74.7-74.57-19.07-19.57L1058,464l-55.84-56.63c-7.92,8.15-15,15.53-22.14,22.75q-25.08,25.18-50.33,50.2C927.25,482.69,926.93,484.35,929.58,486.8Z"/><path class="cls-1" d="M929.8,554.87c-.86.88-1.09,3.82-.35,4.6,5.37,5.63,11.07,10.95,17.2,16.89L1001.18,521l38.39,37.76-19.87,18.35,18.94,18.78,37.45-37.12-75.47-76C977.14,506.64,953.4,530.69,929.8,554.87Z"/><path class="cls-1" d="M890,595l18.27,19.12,18.63-18.3-18.63-19Z"/><rect class="cls-1" x="1043.39" y="394.07" width="29.39" height="29.39" transform="translate(41.83 912.6) rotate(-47.49)"/></svg>