<?xml version="1.0" encoding="utf-8"?>
<!-- Svg Vector Icons : http://www.onlinewebfonts.com/icon -->
<!DOCTYPE svg PUBLIC "-//W3C//DTD SVG 1.1//EN" "http://www.w3.org/Graphics/SVG/1.1/DTD/svg11.dtd">
<svg version="1.1" xmlns="http://www.w3.org/2000/svg" xmlns:xlink="http://www.w3.org/1999/xlink" x="0px" y="0px" viewBox="0 0 1000 1000" enable-background="new 0 0 1000 1000" xml:space="preserve">
<metadata> Svg Vector Icons : http://www.onlinewebfonts.com/icon </metadata>
<g><path d="M500,39.3C754,39.3,960.7,246,960.7,500c0,254-206.7,460.7-460.7,460.7C246,960.7,39.3,754,39.3,500C39.3,246,246,39.3,500,39.3 M500,10C229.4,10,10,229.4,10,500s219.4,490,490,490s490-219.4,490-490S770.6,10,500,10L500,10z"/><path d="M401.1,473.3c-1.8-7.8-12.2-58.6,20.3-70.1c3.9-1.4,5.8-5.9,4.8-10l-27.4-114.6c-0.5-2.1-1.7-3.8-3.4-5.1c-10.9-7.8-52.3-33.2-76.1,12c-27.6,52.4-42.4,106.8,0,194.6c42.4,87.7,167,199.5,218.6,214.4c51.7,14.9,120.3,24.8,142.9,3.5c22.6-21.2,38.9-36.1,38.9-36.1s27.6-24.8,0-46.7c-24.6-19.6-67.9-53.3-76.9-60.3c-1.2-0.9-2.5-1.5-4-1.7c-6.2-0.7-23.5-0.8-33.8,18.1c-12.7,23.3-31.8,48.8-65.8,36.1c-33.8-12.7-114.4-79.9-137.6-132.1C401.4,474.5,401.3,473.9,401.1,473.3z"/></g>
</svg>