<svg id="Layer_1" data-name="Layer 1" xmlns="http://www.w3.org/2000/svg" viewBox="0 0 1024 768"><defs><style>.cls-1{fill:#000000;}</style></defs><title>pract</title><path class="cls-1" d="M308.85,429.42l-5.79,5.95A42,42,0,0,0,327.14,446v21.49H294.68V361.3h32.46v76.81A34.86,34.86,0,0,1,308.85,429.42Zm63.25-29.87c0,21-16.61,38.1-36.57,39V361.3C355.49,362.21,372.1,379.28,372.1,399.55Z"/><path class="cls-1" d="M376.68,467.83V425.46a39.08,39.08,0,0,1,34.14-38.86v81.23Zm42.37-81.23c17.37,1.83,31.85,15.24,34.13,32.15H419.05Z"/><path class="cls-1" d="M509.73,467.83H501.5a39.16,39.16,0,0,1-39.17-39.17v-3.2a39.11,39.11,0,0,1,26.22-36.88Zm30-42.37v42.37H518.11l-21.94-81.08a31,31,0,0,1,5.33-.46C522.23,386.29,539.75,403.82,539.75,425.46Z"/><path class="cls-1" d="M548.9,428.66v-3.2a39.12,39.12,0,0,1,34.9-38.86v81.08A39.18,39.18,0,0,1,548.9,428.66Zm77.42-9.91H592.18V386.6C609.25,388.43,623.12,401.84,626.32,418.75Zm0,16.62c-3.2,16.91-17.07,30.32-34.14,32.31V435.37Z"/><path class="cls-1" d="M669.46,435.21h.15v.16H712c-2.44,18.28-19.05,32.46-38.26,32.46-20.72,0-38.25-17.53-38.25-39.17V361.3h34ZM712,386.29v32.46H677.84V386.29Z"/></svg>