<svg id="Layer_1" data-name="Layer 1" xmlns="http://www.w3.org/2000/svg" viewBox="0 0 1024 768"><defs><style>.cls-1{fill:#fff;}</style></defs><title>Untitled-1</title><path class="cls-1" d="M432,310.06h-56.7l-76.88,69.59,13.87-69.59H264.86L236,454.35h47.42L286.5,439l22.14-20,22.56,35.3h54.21l-41-66Z"/><path class="cls-1" d="M536.88,404.21q0-17.25-7.91-30.41a52.59,52.59,0,0,0-22.63-20.31q-14.73-7.15-34.44-7.17-23.36,0-41.48,9.85a71.11,71.11,0,0,0-28.22,27.25q-10.09,17.38-10.1,39,0,18.24,8.64,31.76s.05.1.09.13H511l-11.81-17.78a45.17,45.17,0,0,1-14.84,8,55.22,55.22,0,0,1-17,2.68q-27.51,0-29.94-21.42H534.2A102.31,102.31,0,0,0,536.88,404.21ZM440,401.54a33.39,33.39,0,0,1,11-16.42q7.53-6,18.74-6t18,6q6.84,6,6.58,16.42Z"/><path class="cls-1" d="M680.76,357.88q-13-11.58-34.68-11.56A64.19,64.19,0,0,0,624,350.21a55.08,55.08,0,0,0-19.22,11.92l2.68-13.62H563.62l-21.1,105.84H588.8l7.91-39.17q3.15-14.85,10.94-22.28t20-7.42q18.24,0,18.25,17.52a38.7,38.7,0,0,1-1,8.77l-8.47,42.58h46.28l9.39-47a81.7,81.7,0,0,0,1.7-16.3Q693.78,369.43,680.76,357.88Z"/><path class="cls-1" d="M769.26,387.91h29.92L806,353.36H776.06l6.82-34.31H736.65l-6.82,34.31H710.61l-7.05,34.55H723l-8.77,43.57a57,57,0,0,0-1.21,12.4,45.17,45.17,0,0,0,1.14,10.47h73.95L786,442.91a29.51,29.51,0,0,1-13.86,3.89c-8.11,0-12.18-3.72-12.18-11.2a43.53,43.53,0,0,1,.49-4.37Z"/></svg>